<svg xmlns="http://www.w3.org/2000/svg" viewBox="0 0 260 48" width="260" height="48">
  <rect x="2" y="4" width="40" height="40" rx="9" fill="#7253ed"/>
  <g stroke="#fff" stroke-width="1.6" stroke-linecap="round" opacity=".9">
    <line x1="12" y1="16.5" x2="22" y2="12.5"/><line x1="12" y1="16.5" x2="22" y2="24"/><line x1="12" y1="31.5" x2="22" y2="24"/><line x1="12" y1="31.5" x2="22" y2="35.5"/>
    <line x1="22" y1="12.5" x2="32" y2="19"/><line x1="22" y1="24" x2="32" y2="19"/><line x1="22" y1="24" x2="32" y2="29"/><line x1="22" y1="35.5" x2="32" y2="29"/>
  </g>
  <g fill="#fff">
    <circle cx="12" cy="16.5" r="3.2"/><circle cx="12" cy="31.5" r="3.2"/>
    <circle cx="22" cy="12.5" r="3.2"/><circle cx="22" cy="24" r="3.2"/><circle cx="22" cy="35.5" r="3.2"/>
    <circle cx="32" cy="19" r="3.2"/><circle cx="32" cy="29" r="3.2"/>
  </g>
  <text x="52" y="25" font-family="system-ui, -apple-system, 'Segoe UI', Roboto, 'Helvetica Neue', Arial, sans-serif" font-size="20" font-weight="700" fill="#27262b">Intro<tspan fill="#7253ed">ML</tspan></text>
  <text x="52" y="40" font-family="system-ui, -apple-system, 'Segoe UI', Roboto, 'Helvetica Neue', Arial, sans-serif" font-size="11" font-weight="500" fill="#5c5962" letter-spacing=".4">NTHU CS 460200 · Fall 2026</text>
</svg>
